<svg xmlns="http://www.w3.org/2000/svg" xmlns:xlink="http://www.w3.org/1999/xlink" width="171" zoomAndPan="magnify" viewBox="0 0 128.25 41.25" height="55" preserveAspectRatio="xMidYMid meet" version="1.0"><defs><g/><clipPath id="7f17920615"><path d="M 0.777344 0 L 41.289062 0 L 41.289062 40.511719 L 0.777344 40.511719 Z M 0.777344 0 " clip-rule="nonzero"/></clipPath><clipPath id="4b94f2b39a"><path d="M 21.035156 0 C 9.847656 0 0.777344 9.070312 0.777344 20.257812 C 0.777344 31.445312 9.847656 40.511719 21.035156 40.511719 C 32.222656 40.511719 41.289062 31.445312 41.289062 20.257812 C 41.289062 9.070312 32.222656 0 21.035156 0 Z M 21.035156 0 " clip-rule="nonzero"/></clipPath><clipPath id="778dcef762"><path d="M 0.777344 0 L 41.289062 0 L 41.289062 40.511719 L 0.777344 40.511719 Z M 0.777344 0 " clip-rule="nonzero"/></clipPath><clipPath id="d98587e95d"><path d="M 21.035156 0 C 9.847656 0 0.777344 9.070312 0.777344 20.257812 C 0.777344 31.445312 9.847656 40.511719 21.035156 40.511719 C 32.222656 40.511719 41.289062 31.445312 41.289062 20.257812 C 41.289062 9.070312 32.222656 0 21.035156 0 Z M 21.035156 0 " clip-rule="nonzero"/></clipPath><clipPath id="2698d612a0"><rect x="0" width="42" y="0" height="41"/></clipPath><clipPath id="58a6ebb3d4"><rect x="0" width="76" y="0" height="24"/></clipPath><clipPath id="e512c2f7a8"><rect x="0" width="26" y="0" height="39"/></clipPath><clipPath id="97d195a552"><path d="M 47 26 L 126.738281 26 L 126.738281 37 L 47 37 Z M 47 26 " clip-rule="nonzero"/></clipPath><clipPath id="324cc9f944"><path d="M 75 1 L 79.738281 1 L 79.738281 8 L 75 8 Z M 75 1 " clip-rule="nonzero"/></clipPath><clipPath id="47337b0faa"><rect x="0" width="80" y="0" height="11"/></clipPath><clipPath id="8db5abd97a"><path d="M 118.707031 17.300781 L 122.683594 17.300781 L 122.683594 21.277344 L 118.707031 21.277344 Z M 118.707031 17.300781 " clip-rule="nonzero"/></clipPath><clipPath id="36a6933ab1"><path d="M 120.695312 17.300781 C 119.597656 17.300781 118.707031 18.191406 118.707031 19.289062 C 118.707031 20.386719 119.597656 21.277344 120.695312 21.277344 C 121.792969 21.277344 122.683594 20.386719 122.683594 19.289062 C 122.683594 18.191406 121.792969 17.300781 120.695312 17.300781 Z M 120.695312 17.300781 " clip-rule="nonzero"/></clipPath><clipPath id="6e34cc7b03"><path d="M 0.707031 0.300781 L 4.683594 0.300781 L 4.683594 4.277344 L 0.707031 4.277344 Z M 0.707031 0.300781 " clip-rule="nonzero"/></clipPath><clipPath id="56a3aa7287"><path d="M 2.695312 0.300781 C 1.597656 0.300781 0.707031 1.191406 0.707031 2.289062 C 0.707031 3.386719 1.597656 4.277344 2.695312 4.277344 C 3.792969 4.277344 4.683594 3.386719 4.683594 2.289062 C 4.683594 1.191406 3.792969 0.300781 2.695312 0.300781 Z M 2.695312 0.300781 " clip-rule="nonzero"/></clipPath><clipPath id="1e8a145709"><rect x="0" width="5" y="0" height="5"/></clipPath></defs><g clip-path="url(#7f17920615)"><g clip-path="url(#4b94f2b39a)"><g transform="matrix(1, 0, 0, 1, 0.000000000000000111, 0.000000000000005234)"><g clip-path="url(#2698d612a0)"><g clip-path="url(#778dcef762)"><g clip-path="url(#d98587e95d)"><path fill="#9b64d6" d="M 0.777344 0 L 41.289062 0 L 41.289062 40.511719 L 0.777344 40.511719 Z M 0.777344 0 " fill-opacity="1" fill-rule="nonzero"/></g></g></g></g></g></g><g transform="matrix(1, 0, 0, 1, 46, 0.000000000000005234)"><g clip-path="url(#58a6ebb3d4)"><g fill="#4e3f6b" fill-opacity="1"><g transform="translate(0.711382, 15.972887)"><g><path d="M 8.332031 0.292969 C 11.039062 0.292969 13.410156 -1.070312 14.648438 -3.167969 L 12.152344 -4.617188 C 11.460938 -3.335938 10.011719 -2.539062 8.332031 -2.539062 C 5.457031 -2.539062 3.566406 -4.535156 3.566406 -7.347656 C 3.566406 -10.179688 5.457031 -12.171875 8.332031 -12.171875 C 10.011719 -12.171875 11.4375 -11.375 12.152344 -10.074219 L 14.648438 -11.523438 C 13.390625 -13.621094 11.019531 -14.984375 8.332031 -14.984375 C 3.882812 -14.984375 0.691406 -11.648438 0.691406 -7.347656 C 0.691406 -3.0625 3.882812 0.292969 8.332031 0.292969 Z M 8.332031 0.292969 "/></g></g></g><g fill="#4e3f6b" fill-opacity="1"><g transform="translate(15.84433, 15.972887)"><g><path d="M 9.214844 -10.496094 L 9.214844 -9.257812 C 8.457031 -10.199219 7.324219 -10.789062 5.792969 -10.789062 C 3 -10.789062 0.691406 -8.375 0.691406 -5.246094 C 0.691406 -2.121094 3 0.292969 5.792969 0.292969 C 7.324219 0.292969 8.457031 -0.292969 9.214844 -1.238281 L 9.214844 0 L 11.921875 0 L 11.921875 -10.496094 Z M 6.296875 -2.289062 C 4.636719 -2.289062 3.398438 -3.484375 3.398438 -5.246094 C 3.398438 -7.011719 4.636719 -8.207031 6.296875 -8.207031 C 7.976562 -8.207031 9.214844 -7.011719 9.214844 -5.246094 C 9.214844 -3.484375 7.976562 -2.289062 6.296875 -2.289062 Z M 6.296875 -2.289062 "/></g></g></g><g fill="#4e3f6b" fill-opacity="1"><g transform="translate(28.983329, 15.972887)"><g><path d="M 1.238281 0 L 3.945312 0 L 3.945312 -15.320312 L 1.238281 -15.320312 Z M 1.238281 0 "/></g></g></g><g fill="#4e3f6b" fill-opacity="1"><g transform="translate(34.167564, 15.972887)"><g><path d="M 3.527344 -4.136719 L 11.4375 -4.136719 C 11.5 -4.492188 11.542969 -4.847656 11.542969 -5.246094 C 11.542969 -8.332031 9.339844 -10.789062 6.234375 -10.789062 C 2.9375 -10.789062 0.691406 -8.375 0.691406 -5.246094 C 0.691406 -2.121094 2.917969 0.292969 6.445312 0.292969 C 8.457031 0.292969 10.03125 -0.523438 11.019531 -1.953125 L 8.835938 -3.210938 C 8.375 -2.601562 7.535156 -2.160156 6.484375 -2.160156 C 5.058594 -2.160156 3.902344 -2.75 3.527344 -4.136719 Z M 3.484375 -6.234375 C 3.800781 -7.578125 4.785156 -8.351562 6.234375 -8.351562 C 7.367188 -8.351562 8.5 -7.746094 8.835938 -6.234375 Z M 3.484375 -6.234375 "/></g></g></g><g fill="#4e3f6b" fill-opacity="1"><g transform="translate(46.362058, 15.972887)"><g><path d="M 7.074219 -10.789062 C 5.667969 -10.789062 4.574219 -10.261719 3.945312 -9.320312 L 3.945312 -10.496094 L 1.238281 -10.496094 L 1.238281 0 L 3.945312 0 L 3.945312 -5.667969 C 3.945312 -7.492188 4.933594 -8.269531 6.253906 -8.269531 C 7.472656 -8.269531 8.332031 -7.535156 8.332031 -6.109375 L 8.332031 0 L 11.039062 0 L 11.039062 -6.445312 C 11.039062 -9.234375 9.296875 -10.789062 7.074219 -10.789062 Z M 7.074219 -10.789062 "/></g></g></g><g fill="#4e3f6b" fill-opacity="1"><g transform="translate(58.47259, 15.972887)"><g><path d="M 1.238281 0 L 3.945312 0 L 3.945312 -15.320312 L 1.238281 -15.320312 Z M 1.238281 0 "/></g></g></g><g fill="#4e3f6b" fill-opacity="1"><g transform="translate(63.656825, 15.972887)"><g><path d="M 8.082031 -10.496094 L 5.75 -3.441406 L 3.023438 -10.496094 L 0.0625 -10.496094 L 4.367188 -0.335938 C 3.863281 1.070312 3.105469 1.699219 1.617188 1.679688 L 1.617188 4.199219 C 4.28125 4.34375 6.066406 3.023438 7.15625 0 L 10.976562 -10.496094 Z M 8.082031 -10.496094 "/></g></g></g></g></g><g transform="matrix(1, 0, 0, 1, 10, 0.000000000000005234)"><g clip-path="url(#e512c2f7a8)"><g fill="#ffffff" fill-opacity="1"><g transform="translate(0.892769, 25.677584)"><g><path d="M 11.105469 0.523438 C 14.769531 0.523438 17.949219 -1.421875 19.558594 -4.335938 L 15.371094 -6.730469 C 14.621094 -5.199219 13.011719 -4.261719 11.070312 -4.261719 C 8.191406 -4.261719 6.058594 -6.394531 6.058594 -9.347656 C 6.058594 -12.339844 8.191406 -14.472656 11.070312 -14.472656 C 12.976562 -14.472656 14.585938 -13.5 15.332031 -11.964844 L 19.484375 -14.398438 C 17.949219 -17.277344 14.769531 -19.222656 11.105469 -19.222656 C 5.421875 -19.222656 1.234375 -14.921875 1.234375 -9.347656 C 1.234375 -3.777344 5.421875 0.523438 11.105469 0.523438 Z M 11.105469 0.523438 "/></g></g></g></g></g><g clip-path="url(#97d195a552)"><g transform="matrix(1, 0, 0, 1, 47, 26)"><g clip-path="url(#47337b0faa)"><g fill="#adabb8" fill-opacity="1"><g transform="translate(0.974682, 7.015089)"><g><path d="M 2.015625 0.046875 C 1.703125 0.046875 1.421875 -0.00390625 1.171875 -0.109375 C 0.929688 -0.222656 0.738281 -0.378906 0.59375 -0.578125 C 0.457031 -0.773438 0.390625 -1.003906 0.390625 -1.265625 L 1.046875 -1.265625 C 1.066406 -1.035156 1.15625 -0.84375 1.3125 -0.6875 C 1.476562 -0.539062 1.710938 -0.46875 2.015625 -0.46875 C 2.316406 -0.46875 2.550781 -0.539062 2.71875 -0.6875 C 2.882812 -0.84375 2.96875 -1.035156 2.96875 -1.265625 C 2.96875 -1.441406 2.914062 -1.585938 2.8125 -1.703125 C 2.71875 -1.816406 2.59375 -1.898438 2.4375 -1.953125 C 2.289062 -2.015625 2.09375 -2.082031 1.84375 -2.15625 C 1.53125 -2.226562 1.28125 -2.304688 1.09375 -2.390625 C 0.90625 -2.472656 0.742188 -2.597656 0.609375 -2.765625 C 0.472656 -2.941406 0.40625 -3.179688 0.40625 -3.484375 C 0.40625 -3.734375 0.472656 -3.957031 0.609375 -4.15625 C 0.742188 -4.363281 0.925781 -4.519531 1.15625 -4.625 C 1.394531 -4.726562 1.671875 -4.78125 1.984375 -4.78125 C 2.421875 -4.78125 2.78125 -4.671875 3.0625 -4.453125 C 3.351562 -4.234375 3.515625 -3.941406 3.546875 -3.578125 L 2.875 -3.578125 C 2.84375 -3.753906 2.742188 -3.910156 2.578125 -4.046875 C 2.410156 -4.191406 2.191406 -4.265625 1.921875 -4.265625 C 1.660156 -4.265625 1.445312 -4.195312 1.28125 -4.0625 C 1.125 -3.925781 1.046875 -3.738281 1.046875 -3.5 C 1.046875 -3.320312 1.09375 -3.179688 1.1875 -3.078125 C 1.28125 -2.972656 1.398438 -2.890625 1.546875 -2.828125 C 1.691406 -2.773438 1.894531 -2.710938 2.15625 -2.640625 C 2.46875 -2.554688 2.71875 -2.472656 2.90625 -2.390625 C 3.09375 -2.304688 3.253906 -2.175781 3.390625 -2 C 3.523438 -1.820312 3.59375 -1.582031 3.59375 -1.28125 C 3.59375 -1.050781 3.53125 -0.832031 3.40625 -0.625 C 3.289062 -0.425781 3.113281 -0.265625 2.875 -0.140625 C 2.632812 -0.015625 2.347656 0.046875 2.015625 0.046875 Z M 2.015625 0.046875 "/></g></g></g><g fill="#adabb8" fill-opacity="1"><g transform="translate(4.956472, 7.015089)"><g><path d="M 0.296875 -1.875 C 0.296875 -2.25 0.367188 -2.578125 0.515625 -2.859375 C 0.671875 -3.148438 0.882812 -3.375 1.15625 -3.53125 C 1.425781 -3.695312 1.726562 -3.78125 2.0625 -3.78125 C 2.382812 -3.78125 2.664062 -3.707031 2.90625 -3.5625 C 3.144531 -3.425781 3.320312 -3.25 3.4375 -3.03125 L 3.4375 -3.71875 L 4.0625 -3.71875 L 4.0625 0 L 3.4375 0 L 3.4375 -0.6875 C 3.3125 -0.46875 3.128906 -0.285156 2.890625 -0.140625 C 2.648438 -0.00390625 2.367188 0.0625 2.046875 0.0625 C 1.710938 0.0625 1.410156 -0.015625 1.140625 -0.171875 C 0.878906 -0.335938 0.671875 -0.566406 0.515625 -0.859375 C 0.367188 -1.160156 0.296875 -1.5 0.296875 -1.875 Z M 3.4375 -1.859375 C 3.4375 -2.140625 3.378906 -2.382812 3.265625 -2.59375 C 3.148438 -2.800781 2.992188 -2.957031 2.796875 -3.0625 C 2.609375 -3.175781 2.398438 -3.234375 2.171875 -3.234375 C 1.941406 -3.234375 1.734375 -3.179688 1.546875 -3.078125 C 1.359375 -2.972656 1.207031 -2.816406 1.09375 -2.609375 C 0.976562 -2.398438 0.921875 -2.15625 0.921875 -1.875 C 0.921875 -1.582031 0.976562 -1.332031 1.09375 -1.125 C 1.207031 -0.914062 1.359375 -0.753906 1.546875 -0.640625 C 1.734375 -0.535156 1.941406 -0.484375 2.171875 -0.484375 C 2.398438 -0.484375 2.609375 -0.535156 2.796875 -0.640625 C 2.992188 -0.753906 3.148438 -0.914062 3.265625 -1.125 C 3.378906 -1.332031 3.4375 -1.578125 3.4375 -1.859375 Z M 3.4375 -1.859375 "/></g></g></g><g fill="#adabb8" fill-opacity="1"><g transform="translate(9.541975, 7.015089)"><g><path d="M 0.296875 -1.875 C 0.296875 -2.25 0.367188 -2.578125 0.515625 -2.859375 C 0.671875 -3.148438 0.882812 -3.375 1.15625 -3.53125 C 1.425781 -3.695312 1.726562 -3.78125 2.0625 -3.78125 C 2.382812 -3.78125 2.664062 -3.707031 2.90625 -3.5625 C 3.144531 -3.425781 3.320312 -3.25 3.4375 -3.03125 L 3.4375 -3.71875 L 4.0625 -3.71875 L 4.0625 0 L 3.4375 0 L 3.4375 -0.6875 C 3.3125 -0.46875 3.128906 -0.285156 2.890625 -0.140625 C 2.648438 -0.00390625 2.367188 0.0625 2.046875 0.0625 C 1.710938 0.0625 1.410156 -0.015625 1.140625 -0.171875 C 0.878906 -0.335938 0.671875 -0.566406 0.515625 -0.859375 C 0.367188 -1.160156 0.296875 -1.5 0.296875 -1.875 Z M 3.4375 -1.859375 C 3.4375 -2.140625 3.378906 -2.382812 3.265625 -2.59375 C 3.148438 -2.800781 2.992188 -2.957031 2.796875 -3.0625 C 2.609375 -3.175781 2.398438 -3.234375 2.171875 -3.234375 C 1.941406 -3.234375 1.734375 -3.179688 1.546875 -3.078125 C 1.359375 -2.972656 1.207031 -2.816406 1.09375 -2.609375 C 0.976562 -2.398438 0.921875 -2.15625 0.921875 -1.875 C 0.921875 -1.582031 0.976562 -1.332031 1.09375 -1.125 C 1.207031 -0.914062 1.359375 -0.753906 1.546875 -0.640625 C 1.734375 -0.535156 1.941406 -0.484375 2.171875 -0.484375 C 2.398438 -0.484375 2.609375 -0.535156 2.796875 -0.640625 C 2.992188 -0.753906 3.148438 -0.914062 3.265625 -1.125 C 3.378906 -1.332031 3.4375 -1.578125 3.4375 -1.859375 Z M 3.4375 -1.859375 "/></g></g></g><g fill="#adabb8" fill-opacity="1"><g transform="translate(14.127477, 7.015089)"><g><path d="M 1.84375 0.0625 C 1.550781 0.0625 1.289062 0.015625 1.0625 -0.078125 C 0.84375 -0.179688 0.664062 -0.316406 0.53125 -0.484375 C 0.40625 -0.660156 0.332031 -0.863281 0.3125 -1.09375 L 0.953125 -1.09375 C 0.972656 -0.90625 1.0625 -0.753906 1.21875 -0.640625 C 1.375 -0.523438 1.578125 -0.46875 1.828125 -0.46875 C 2.066406 -0.46875 2.253906 -0.515625 2.390625 -0.609375 C 2.523438 -0.710938 2.59375 -0.847656 2.59375 -1.015625 C 2.59375 -1.171875 2.519531 -1.285156 2.375 -1.359375 C 2.226562 -1.441406 2.003906 -1.523438 1.703125 -1.609375 C 1.421875 -1.679688 1.191406 -1.753906 1.015625 -1.828125 C 0.847656 -1.898438 0.703125 -2.007812 0.578125 -2.15625 C 0.453125 -2.300781 0.390625 -2.492188 0.390625 -2.734375 C 0.390625 -2.929688 0.445312 -3.109375 0.5625 -3.265625 C 0.675781 -3.421875 0.835938 -3.546875 1.046875 -3.640625 C 1.253906 -3.734375 1.488281 -3.78125 1.75 -3.78125 C 2.164062 -3.78125 2.5 -3.675781 2.75 -3.46875 C 3.007812 -3.257812 3.144531 -2.972656 3.15625 -2.609375 L 2.546875 -2.609375 C 2.523438 -2.804688 2.441406 -2.960938 2.296875 -3.078125 C 2.160156 -3.191406 1.972656 -3.25 1.734375 -3.25 C 1.515625 -3.25 1.335938 -3.203125 1.203125 -3.109375 C 1.078125 -3.015625 1.015625 -2.890625 1.015625 -2.734375 C 1.015625 -2.617188 1.050781 -2.519531 1.125 -2.4375 C 1.207031 -2.351562 1.304688 -2.285156 1.421875 -2.234375 C 1.546875 -2.191406 1.710938 -2.144531 1.921875 -2.09375 C 2.191406 -2.019531 2.410156 -1.945312 2.578125 -1.875 C 2.742188 -1.800781 2.882812 -1.691406 3 -1.546875 C 3.125 -1.410156 3.1875 -1.234375 3.1875 -1.015625 C 3.1875 -0.804688 3.128906 -0.617188 3.015625 -0.453125 C 2.910156 -0.296875 2.753906 -0.171875 2.546875 -0.078125 C 2.335938 0.015625 2.101562 0.0625 1.84375 0.0625 Z M 1.84375 0.0625 "/></g></g></g><g fill="#adabb8" fill-opacity="1"><g transform="translate(17.668349, 7.015089)"><g/></g></g><g fill="#adabb8" fill-opacity="1"><g transform="translate(19.479488, 7.015089)"><g><path d="M 3.3125 -1.046875 L 1.25 -1.046875 L 0.875 0 L 0.21875 0 L 1.9375 -4.703125 L 2.640625 -4.703125 L 4.34375 0 L 3.703125 0 Z M 3.140625 -1.546875 L 2.28125 -3.9375 L 1.4375 -1.546875 Z M 3.140625 -1.546875 "/></g></g></g><g fill="#adabb8" fill-opacity="1"><g transform="translate(24.051423, 7.015089)"><g><path d="M 0.296875 -1.875 C 0.296875 -2.25 0.367188 -2.578125 0.515625 -2.859375 C 0.671875 -3.148438 0.882812 -3.375 1.15625 -3.53125 C 1.425781 -3.695312 1.726562 -3.78125 2.0625 -3.78125 C 2.351562 -3.78125 2.617188 -3.710938 2.859375 -3.578125 C 3.109375 -3.441406 3.300781 -3.265625 3.4375 -3.046875 L 3.4375 -5.015625 L 4.0625 -5.015625 L 4.0625 0 L 3.4375 0 L 3.4375 -0.703125 C 3.3125 -0.472656 3.128906 -0.285156 2.890625 -0.140625 C 2.648438 -0.00390625 2.375 0.0625 2.0625 0.0625 C 1.726562 0.0625 1.425781 -0.015625 1.15625 -0.171875 C 0.882812 -0.335938 0.671875 -0.566406 0.515625 -0.859375 C 0.367188 -1.160156 0.296875 -1.5 0.296875 -1.875 Z M 3.4375 -1.859375 C 3.4375 -2.140625 3.378906 -2.382812 3.265625 -2.59375 C 3.148438 -2.800781 2.992188 -2.957031 2.796875 -3.0625 C 2.609375 -3.175781 2.398438 -3.234375 2.171875 -3.234375 C 1.941406 -3.234375 1.734375 -3.179688 1.546875 -3.078125 C 1.359375 -2.972656 1.207031 -2.816406 1.09375 -2.609375 C 0.976562 -2.398438 0.921875 -2.15625 0.921875 -1.875 C 0.921875 -1.582031 0.976562 -1.332031 1.09375 -1.125 C 1.207031 -0.914062 1.359375 -0.753906 1.546875 -0.640625 C 1.734375 -0.535156 1.941406 -0.484375 2.171875 -0.484375 C 2.398438 -0.484375 2.609375 -0.535156 2.796875 -0.640625 C 2.992188 -0.753906 3.148438 -0.914062 3.265625 -1.125 C 3.378906 -1.332031 3.4375 -1.578125 3.4375 -1.859375 Z M 3.4375 -1.859375 "/></g></g></g><g fill="#adabb8" fill-opacity="1"><g transform="translate(28.636926, 7.015089)"><g><path d="M 4.984375 -3.78125 C 5.273438 -3.78125 5.535156 -3.71875 5.765625 -3.59375 C 5.992188 -3.476562 6.171875 -3.300781 6.296875 -3.0625 C 6.429688 -2.820312 6.5 -2.53125 6.5 -2.1875 L 6.5 0 L 5.890625 0 L 5.890625 -2.109375 C 5.890625 -2.472656 5.796875 -2.753906 5.609375 -2.953125 C 5.429688 -3.148438 5.1875 -3.25 4.875 -3.25 C 4.550781 -3.25 4.289062 -3.144531 4.09375 -2.9375 C 3.90625 -2.726562 3.8125 -2.429688 3.8125 -2.046875 L 3.8125 0 L 3.203125 0 L 3.203125 -2.109375 C 3.203125 -2.472656 3.109375 -2.753906 2.921875 -2.953125 C 2.742188 -3.148438 2.5 -3.25 2.1875 -3.25 C 1.863281 -3.25 1.609375 -3.144531 1.421875 -2.9375 C 1.234375 -2.726562 1.140625 -2.429688 1.140625 -2.046875 L 1.140625 0 L 0.515625 0 L 0.515625 -3.71875 L 1.140625 -3.71875 L 1.140625 -3.1875 C 1.265625 -3.375 1.425781 -3.519531 1.625 -3.625 C 1.832031 -3.726562 2.0625 -3.78125 2.3125 -3.78125 C 2.625 -3.78125 2.898438 -3.707031 3.140625 -3.5625 C 3.378906 -3.425781 3.554688 -3.222656 3.671875 -2.953125 C 3.773438 -3.210938 3.945312 -3.414062 4.1875 -3.5625 C 4.425781 -3.707031 4.691406 -3.78125 4.984375 -3.78125 Z M 4.984375 -3.78125 "/></g></g></g><g fill="#adabb8" fill-opacity="1"><g transform="translate(35.623712, 7.015089)"><g><path d="M 0.84375 -4.3125 C 0.726562 -4.3125 0.628906 -4.351562 0.546875 -4.4375 C 0.460938 -4.519531 0.421875 -4.617188 0.421875 -4.734375 C 0.421875 -4.859375 0.460938 -4.957031 0.546875 -5.03125 C 0.628906 -5.113281 0.726562 -5.15625 0.84375 -5.15625 C 0.957031 -5.15625 1.050781 -5.113281 1.125 -5.03125 C 1.207031 -4.957031 1.25 -4.859375 1.25 -4.734375 C 1.25 -4.617188 1.207031 -4.519531 1.125 -4.4375 C 1.050781 -4.351562 0.957031 -4.3125 0.84375 -4.3125 Z M 1.140625 -3.71875 L 1.140625 0 L 0.515625 0 L 0.515625 -3.71875 Z M 1.140625 -3.71875 "/></g></g></g><g fill="#adabb8" fill-opacity="1"><g transform="translate(37.292404, 7.015089)"><g><path d="M 2.328125 -3.78125 C 2.785156 -3.78125 3.15625 -3.644531 3.4375 -3.375 C 3.71875 -3.101562 3.859375 -2.707031 3.859375 -2.1875 L 3.859375 0 L 3.234375 0 L 3.234375 -2.109375 C 3.234375 -2.472656 3.140625 -2.753906 2.953125 -2.953125 C 2.773438 -3.148438 2.523438 -3.25 2.203125 -3.25 C 1.878906 -3.25 1.617188 -3.144531 1.421875 -2.9375 C 1.234375 -2.738281 1.140625 -2.445312 1.140625 -2.0625 L 1.140625 0 L 0.515625 0 L 0.515625 -3.71875 L 1.140625 -3.71875 L 1.140625 -3.1875 C 1.265625 -3.375 1.429688 -3.519531 1.640625 -3.625 C 1.847656 -3.726562 2.078125 -3.78125 2.328125 -3.78125 Z M 2.328125 -3.78125 "/></g></g></g><g fill="#adabb8" fill-opacity="1"><g transform="translate(41.633706, 7.015089)"><g><path d="M 2 -4.734375 C 2.507812 -4.734375 2.953125 -4.632812 3.328125 -4.4375 C 3.710938 -4.25 4.003906 -3.972656 4.203125 -3.609375 C 4.398438 -3.253906 4.5 -2.835938 4.5 -2.359375 C 4.5 -1.867188 4.398438 -1.445312 4.203125 -1.09375 C 4.003906 -0.738281 3.710938 -0.46875 3.328125 -0.28125 C 2.953125 -0.09375 2.507812 0 2 0 L 0.515625 0 L 0.515625 -4.734375 Z M 2 -0.515625 C 2.601562 -0.515625 3.066406 -0.675781 3.390625 -1 C 3.710938 -1.320312 3.875 -1.773438 3.875 -2.359375 C 3.875 -2.941406 3.710938 -3.394531 3.390625 -3.71875 C 3.066406 -4.050781 2.601562 -4.21875 2 -4.21875 L 1.140625 -4.21875 L 1.140625 -0.515625 Z M 2 -0.515625 "/></g></g></g><g fill="#adabb8" fill-opacity="1"><g transform="translate(46.429486, 7.015089)"><g><path d="M 0.296875 -1.875 C 0.296875 -2.25 0.367188 -2.578125 0.515625 -2.859375 C 0.671875 -3.148438 0.882812 -3.375 1.15625 -3.53125 C 1.425781 -3.695312 1.726562 -3.78125 2.0625 -3.78125 C 2.382812 -3.78125 2.664062 -3.707031 2.90625 -3.5625 C 3.144531 -3.425781 3.320312 -3.25 3.4375 -3.03125 L 3.4375 -3.71875 L 4.0625 -3.71875 L 4.0625 0 L 3.4375 0 L 3.4375 -0.6875 C 3.3125 -0.46875 3.128906 -0.285156 2.890625 -0.140625 C 2.648438 -0.00390625 2.367188 0.0625 2.046875 0.0625 C 1.710938 0.0625 1.410156 -0.015625 1.140625 -0.171875 C 0.878906 -0.335938 0.671875 -0.566406 0.515625 -0.859375 C 0.367188 -1.160156 0.296875 -1.5 0.296875 -1.875 Z M 3.4375 -1.859375 C 3.4375 -2.140625 3.378906 -2.382812 3.265625 -2.59375 C 3.148438 -2.800781 2.992188 -2.957031 2.796875 -3.0625 C 2.609375 -3.175781 2.398438 -3.234375 2.171875 -3.234375 C 1.941406 -3.234375 1.734375 -3.179688 1.546875 -3.078125 C 1.359375 -2.972656 1.207031 -2.816406 1.09375 -2.609375 C 0.976562 -2.398438 0.921875 -2.15625 0.921875 -1.875 C 0.921875 -1.582031 0.976562 -1.332031 1.09375 -1.125 C 1.207031 -0.914062 1.359375 -0.753906 1.546875 -0.640625 C 1.734375 -0.535156 1.941406 -0.484375 2.171875 -0.484375 C 2.398438 -0.484375 2.609375 -0.535156 2.796875 -0.640625 C 2.992188 -0.753906 3.148438 -0.914062 3.265625 -1.125 C 3.378906 -1.332031 3.4375 -1.578125 3.4375 -1.859375 Z M 3.4375 -1.859375 "/></g></g></g><g fill="#adabb8" fill-opacity="1"><g transform="translate(51.014989, 7.015089)"><g><path d="M 1.84375 0.0625 C 1.550781 0.0625 1.289062 0.015625 1.0625 -0.078125 C 0.84375 -0.179688 0.664062 -0.316406 0.53125 -0.484375 C 0.40625 -0.660156 0.332031 -0.863281 0.3125 -1.09375 L 0.953125 -1.09375 C 0.972656 -0.90625 1.0625 -0.753906 1.21875 -0.640625 C 1.375 -0.523438 1.578125 -0.46875 1.828125 -0.46875 C 2.066406 -0.46875 2.253906 -0.515625 2.390625 -0.609375 C 2.523438 -0.710938 2.59375 -0.847656 2.59375 -1.015625 C 2.59375 -1.171875 2.519531 -1.285156 2.375 -1.359375 C 2.226562 -1.441406 2.003906 -1.523438 1.703125 -1.609375 C 1.421875 -1.679688 1.191406 -1.753906 1.015625 -1.828125 C 0.847656 -1.898438 0.703125 -2.007812 0.578125 -2.15625 C 0.453125 -2.300781 0.390625 -2.492188 0.390625 -2.734375 C 0.390625 -2.929688 0.445312 -3.109375 0.5625 -3.265625 C 0.675781 -3.421875 0.835938 -3.546875 1.046875 -3.640625 C 1.253906 -3.734375 1.488281 -3.78125 1.75 -3.78125 C 2.164062 -3.78125 2.5 -3.675781 2.75 -3.46875 C 3.007812 -3.257812 3.144531 -2.972656 3.15625 -2.609375 L 2.546875 -2.609375 C 2.523438 -2.804688 2.441406 -2.960938 2.296875 -3.078125 C 2.160156 -3.191406 1.972656 -3.25 1.734375 -3.25 C 1.515625 -3.25 1.335938 -3.203125 1.203125 -3.109375 C 1.078125 -3.015625 1.015625 -2.890625 1.015625 -2.734375 C 1.015625 -2.617188 1.050781 -2.519531 1.125 -2.4375 C 1.207031 -2.351562 1.304688 -2.285156 1.421875 -2.234375 C 1.546875 -2.191406 1.710938 -2.144531 1.921875 -2.09375 C 2.191406 -2.019531 2.410156 -1.945312 2.578125 -1.875 C 2.742188 -1.800781 2.882812 -1.691406 3 -1.546875 C 3.125 -1.410156 3.1875 -1.234375 3.1875 -1.015625 C 3.1875 -0.804688 3.128906 -0.617188 3.015625 -0.453125 C 2.910156 -0.296875 2.753906 -0.171875 2.546875 -0.078125 C 2.335938 0.015625 2.101562 0.0625 1.84375 0.0625 Z M 1.84375 0.0625 "/></g></g></g><g fill="#adabb8" fill-opacity="1"><g transform="translate(54.55586, 7.015089)"><g><path d="M 2.359375 -3.78125 C 2.640625 -3.78125 2.894531 -3.71875 3.125 -3.59375 C 3.351562 -3.476562 3.53125 -3.300781 3.65625 -3.0625 C 3.789062 -2.820312 3.859375 -2.53125 3.859375 -2.1875 L 3.859375 0 L 3.234375 0 L 3.234375 -2.109375 C 3.234375 -2.472656 3.140625 -2.753906 2.953125 -2.953125 C 2.773438 -3.148438 2.523438 -3.25 2.203125 -3.25 C 1.878906 -3.25 1.617188 -3.144531 1.421875 -2.9375 C 1.234375 -2.738281 1.140625 -2.445312 1.140625 -2.0625 L 1.140625 0 L 0.515625 0 L 0.515625 -5.015625 L 1.140625 -5.015625 L 1.140625 -3.1875 C 1.265625 -3.375 1.429688 -3.519531 1.640625 -3.625 C 1.859375 -3.726562 2.097656 -3.78125 2.359375 -3.78125 Z M 2.359375 -3.78125 "/></g></g></g><g fill="#adabb8" fill-opacity="1"><g transform="translate(58.897162, 7.015089)"><g><path d="M 1.140625 -3.03125 C 1.265625 -3.25 1.445312 -3.425781 1.6875 -3.5625 C 1.9375 -3.707031 2.21875 -3.78125 2.53125 -3.78125 C 2.863281 -3.78125 3.160156 -3.695312 3.421875 -3.53125 C 3.691406 -3.375 3.90625 -3.148438 4.0625 -2.859375 C 4.21875 -2.578125 4.296875 -2.25 4.296875 -1.875 C 4.296875 -1.5 4.21875 -1.160156 4.0625 -0.859375 C 3.90625 -0.566406 3.691406 -0.335938 3.421875 -0.171875 C 3.160156 -0.015625 2.863281 0.0625 2.53125 0.0625 C 2.207031 0.0625 1.925781 -0.00390625 1.6875 -0.140625 C 1.445312 -0.285156 1.265625 -0.46875 1.140625 -0.6875 L 1.140625 0 L 0.515625 0 L 0.515625 -5.015625 L 1.140625 -5.015625 Z M 3.65625 -1.875 C 3.65625 -2.15625 3.597656 -2.398438 3.484375 -2.609375 C 3.378906 -2.816406 3.226562 -2.972656 3.03125 -3.078125 C 2.84375 -3.179688 2.632812 -3.234375 2.40625 -3.234375 C 2.175781 -3.234375 1.960938 -3.175781 1.765625 -3.0625 C 1.578125 -2.957031 1.425781 -2.800781 1.3125 -2.59375 C 1.195312 -2.382812 1.140625 -2.140625 1.140625 -1.859375 C 1.140625 -1.578125 1.195312 -1.332031 1.3125 -1.125 C 1.425781 -0.914062 1.578125 -0.753906 1.765625 -0.640625 C 1.960938 -0.535156 2.175781 -0.484375 2.40625 -0.484375 C 2.632812 -0.484375 2.84375 -0.535156 3.03125 -0.640625 C 3.226562 -0.753906 3.378906 -0.914062 3.484375 -1.125 C 3.597656 -1.332031 3.65625 -1.582031 3.65625 -1.875 Z M 3.65625 -1.875 "/></g></g></g><g fill="#adabb8" fill-opacity="1"><g transform="translate(63.482665, 7.015089)"><g><path d="M 2.140625 0.0625 C 1.796875 0.0625 1.476562 -0.015625 1.1875 -0.171875 C 0.90625 -0.328125 0.6875 -0.550781 0.53125 -0.84375 C 0.375 -1.132812 0.296875 -1.472656 0.296875 -1.859375 C 0.296875 -2.242188 0.375 -2.582031 0.53125 -2.875 C 0.695312 -3.164062 0.921875 -3.390625 1.203125 -3.546875 C 1.492188 -3.703125 1.816406 -3.78125 2.171875 -3.78125 C 2.523438 -3.78125 2.84375 -3.703125 3.125 -3.546875 C 3.40625 -3.390625 3.628906 -3.164062 3.796875 -2.875 C 3.960938 -2.582031 4.046875 -2.242188 4.046875 -1.859375 C 4.046875 -1.472656 3.960938 -1.132812 3.796875 -0.84375 C 3.628906 -0.550781 3.398438 -0.328125 3.109375 -0.171875 C 2.816406 -0.015625 2.492188 0.0625 2.140625 0.0625 Z M 2.140625 -0.484375 C 2.359375 -0.484375 2.566406 -0.535156 2.765625 -0.640625 C 2.960938 -0.742188 3.117188 -0.898438 3.234375 -1.109375 C 3.359375 -1.316406 3.421875 -1.566406 3.421875 -1.859375 C 3.421875 -2.160156 3.359375 -2.414062 3.234375 -2.625 C 3.117188 -2.832031 2.96875 -2.984375 2.78125 -3.078125 C 2.59375 -3.179688 2.382812 -3.234375 2.15625 -3.234375 C 1.9375 -3.234375 1.734375 -3.179688 1.546875 -3.078125 C 1.359375 -2.984375 1.207031 -2.832031 1.09375 -2.625 C 0.976562 -2.414062 0.921875 -2.160156 0.921875 -1.859375 C 0.921875 -1.554688 0.972656 -1.300781 1.078125 -1.09375 C 1.191406 -0.882812 1.34375 -0.726562 1.53125 -0.625 C 1.71875 -0.53125 1.921875 -0.484375 2.140625 -0.484375 Z M 2.140625 -0.484375 "/></g></g></g><g fill="#adabb8" fill-opacity="1"><g transform="translate(67.823968, 7.015089)"><g><path d="M 0.296875 -1.875 C 0.296875 -2.25 0.367188 -2.578125 0.515625 -2.859375 C 0.671875 -3.148438 0.882812 -3.375 1.15625 -3.53125 C 1.425781 -3.695312 1.726562 -3.78125 2.0625 -3.78125 C 2.382812 -3.78125 2.664062 -3.707031 2.90625 -3.5625 C 3.144531 -3.425781 3.320312 -3.25 3.4375 -3.03125 L 3.4375 -3.71875 L 4.0625 -3.71875 L 4.0625 0 L 3.4375 0 L 3.4375 -0.6875 C 3.3125 -0.46875 3.128906 -0.285156 2.890625 -0.140625 C 2.648438 -0.00390625 2.367188 0.0625 2.046875 0.0625 C 1.710938 0.0625 1.410156 -0.015625 1.140625 -0.171875 C 0.878906 -0.335938 0.671875 -0.566406 0.515625 -0.859375 C 0.367188 -1.160156 0.296875 -1.5 0.296875 -1.875 Z M 3.4375 -1.859375 C 3.4375 -2.140625 3.378906 -2.382812 3.265625 -2.59375 C 3.148438 -2.800781 2.992188 -2.957031 2.796875 -3.0625 C 2.609375 -3.175781 2.398438 -3.234375 2.171875 -3.234375 C 1.941406 -3.234375 1.734375 -3.179688 1.546875 -3.078125 C 1.359375 -2.972656 1.207031 -2.816406 1.09375 -2.609375 C 0.976562 -2.398438 0.921875 -2.15625 0.921875 -1.875 C 0.921875 -1.582031 0.976562 -1.332031 1.09375 -1.125 C 1.207031 -0.914062 1.359375 -0.753906 1.546875 -0.640625 C 1.734375 -0.535156 1.941406 -0.484375 2.171875 -0.484375 C 2.398438 -0.484375 2.609375 -0.535156 2.796875 -0.640625 C 2.992188 -0.753906 3.148438 -0.914062 3.265625 -1.125 C 3.378906 -1.332031 3.4375 -1.578125 3.4375 -1.859375 Z M 3.4375 -1.859375 "/></g></g></g><g fill="#adabb8" fill-opacity="1"><g transform="translate(72.40947, 7.015089)"><g><path d="M 1.140625 -3.109375 C 1.242188 -3.328125 1.394531 -3.492188 1.59375 -3.609375 C 1.800781 -3.722656 2.050781 -3.78125 2.34375 -3.78125 L 2.34375 -3.140625 L 2.171875 -3.140625 C 1.484375 -3.140625 1.140625 -2.765625 1.140625 -2.015625 L 1.140625 0 L 0.515625 0 L 0.515625 -3.71875 L 1.140625 -3.71875 Z M 1.140625 -3.109375 "/></g></g></g><g clip-path="url(#324cc9f944)"><g fill="#adabb8" fill-opacity="1"><g transform="translate(74.939634, 7.015089)"><g><path d="M 0.296875 -1.875 C 0.296875 -2.25 0.367188 -2.578125 0.515625 -2.859375 C 0.671875 -3.148438 0.882812 -3.375 1.15625 -3.53125 C 1.425781 -3.695312 1.726562 -3.78125 2.0625 -3.78125 C 2.351562 -3.78125 2.617188 -3.710938 2.859375 -3.578125 C 3.109375 -3.441406 3.300781 -3.265625 3.4375 -3.046875 L 3.4375 -5.015625 L 4.0625 -5.015625 L 4.0625 0 L 3.4375 0 L 3.4375 -0.703125 C 3.3125 -0.472656 3.128906 -0.285156 2.890625 -0.140625 C 2.648438 -0.00390625 2.375 0.0625 2.0625 0.0625 C 1.726562 0.0625 1.425781 -0.015625 1.15625 -0.171875 C 0.882812 -0.335938 0.671875 -0.566406 0.515625 -0.859375 C 0.367188 -1.160156 0.296875 -1.5 0.296875 -1.875 Z M 3.4375 -1.859375 C 3.4375 -2.140625 3.378906 -2.382812 3.265625 -2.59375 C 3.148438 -2.800781 2.992188 -2.957031 2.796875 -3.0625 C 2.609375 -3.175781 2.398438 -3.234375 2.171875 -3.234375 C 1.941406 -3.234375 1.734375 -3.179688 1.546875 -3.078125 C 1.359375 -2.972656 1.207031 -2.816406 1.09375 -2.609375 C 0.976562 -2.398438 0.921875 -2.15625 0.921875 -1.875 C 0.921875 -1.582031 0.976562 -1.332031 1.09375 -1.125 C 1.207031 -0.914062 1.359375 -0.753906 1.546875 -0.640625 C 1.734375 -0.535156 1.941406 -0.484375 2.171875 -0.484375 C 2.398438 -0.484375 2.609375 -0.535156 2.796875 -0.640625 C 2.992188 -0.753906 3.148438 -0.914062 3.265625 -1.125 C 3.378906 -1.332031 3.4375 -1.578125 3.4375 -1.859375 Z M 3.4375 -1.859375 "/></g></g></g></g></g></g></g><g clip-path="url(#8db5abd97a)"><g clip-path="url(#36a6933ab1)"><g transform="matrix(1, 0, 0, 1, 118, 17)"><g clip-path="url(#1e8a145709)"><g clip-path="url(#6e34cc7b03)"><g clip-path="url(#56a3aa7287)"><path fill="#4e3f6b" d="M 0.707031 0.300781 L 4.683594 0.300781 L 4.683594 4.277344 L 0.707031 4.277344 Z M 0.707031 0.300781 " fill-opacity="1" fill-rule="nonzero"/></g></g></g></g></g></g></svg>